<svg width="30" height="31" viewBox="0 0 30 31" fill="none" xmlns="http://www.w3.org/2000/svg">
<path d="M15 28.831C14.5729 28.831 14.1611 28.6763 13.8402 28.3952C12.6283 27.3355 11.4599 26.3396 10.429 25.4612L10.4237 25.4566C7.40134 22.881 4.7914 20.6567 2.97546 18.4656C0.945509 16.0161 0 13.6937 0 11.1565C0 8.69145 0.845259 6.41728 2.37991 4.75262C3.93287 3.06828 6.06376 2.14062 8.38072 2.14062C10.1124 2.14062 11.6984 2.68811 13.0943 3.76775C13.7988 4.31271 14.4374 4.97968 15 5.75764C15.5628 4.97968 16.2011 4.31271 16.9059 3.76775C18.3018 2.68811 19.8877 2.14062 21.6194 2.14062C23.9362 2.14062 26.0673 3.06828 27.6203 4.75262C29.1549 6.41728 29.9999 8.69145 29.9999 11.1565C29.9999 13.6937 29.0547 16.0161 27.0247 18.4654C25.2088 20.6567 22.5991 22.8808 19.5771 25.4561C18.5444 26.336 17.3742 27.3334 16.1595 28.3957C15.8388 28.6763 15.4268 28.831 15 28.831ZM8.38072 3.89798C6.56043 3.89798 4.88822 4.62445 3.67172 5.94373C2.43713 7.28291 1.75712 9.13411 1.75712 11.1565C1.75712 13.2904 2.5502 15.1988 4.32838 17.3443C6.04705 19.4182 8.60342 21.5967 11.5633 24.1192L11.5688 24.1238C12.6036 25.0057 13.7766 26.0054 14.9975 27.073C16.2256 26.0034 17.4005 25.002 18.4373 24.1188C21.397 21.5963 23.9531 19.4182 25.6718 17.3443C27.4497 15.1988 28.2428 13.2904 28.2428 11.1565C28.2428 9.13411 27.5628 7.28291 26.3282 5.94373C25.112 4.62445 23.4395 3.89798 21.6194 3.89798C20.286 3.89798 19.0617 4.32187 17.9807 5.15775C17.0173 5.90298 16.3463 6.84506 15.9528 7.50424C15.7505 7.84322 15.3943 8.04555 15 8.04555C14.6056 8.04555 14.2495 7.84322 14.0471 7.50424C13.6539 6.84506 12.9828 5.90298 12.0192 5.15775C10.9382 4.32187 9.71396 3.89798 8.38072 3.89798Z" fill="#F2721B"/>
</svg>
