<svg width="18" height="22" viewBox="0 0 18 22" fill="none" xmlns="http://www.w3.org/2000/svg">
<g clip-path="url(#clip0)">
<path d="M17.7801 18.7206L12.6614 13.6019C13.6529 12.3771 14.2498 10.8209 14.2498 9.12592C14.2498 5.19746 11.0534 2.00098 7.12491 2.00098C3.19645 2.00098 0 5.19742 0 9.12588C0 13.0543 3.19648 16.2508 7.12494 16.2508C8.81991 16.2508 10.3762 15.6538 11.6009 14.6623L16.7196 19.781C16.8658 19.9273 17.0578 20.0008 17.2498 20.0008C17.4419 20.0008 17.6339 19.9273 17.7801 19.781C18.0733 19.4878 18.0733 19.0138 17.7801 18.7206ZM7.12494 14.7508C4.02296 14.7508 1.5 12.2279 1.5 9.12588C1.5 6.0239 4.02296 3.50094 7.12494 3.50094C10.2269 3.50094 12.7499 6.0239 12.7499 9.12588C12.7499 12.2279 10.2269 14.7508 7.12494 14.7508Z" fill="#F2721B"/>
</g>
<defs>
<clipPath id="clip0">
<rect width="18" height="21.6" fill="white" transform="translate(0 0.199951)"/>
</clipPath>
</defs>
</svg>
